<svg width="1440" height="183" viewBox="0 0 1440 183" fill="none" xmlns="http://www.w3.org/2000/svg">
<path d="M2900 183L-1460 183L-1460 0.0227013C-1438.59 -0.339677 -1417.54 3.64648 -1400.11 11.2564C-1392.49 14.5178 -1381.24 19.9535 -1381.24 19.9535C-1364.18 27.5634 -1342.77 31.5496 -1321.36 31.1872C-1299.94 31.5496 -1278.53 27.5634 -1261.47 19.9535C-1244.78 12.7059 -1240.06 9.44453 -1222.64 4.73362C-1211.75 1.83459 -1200.13 0.0227013 -1187.43 0.0227013C-1166.02 -0.339677 -1144.97 3.64648 -1127.55 11.2564C-1119.93 14.5178 -1108.67 19.9535 -1108.67 19.9535C-1091.62 27.5634 -1070.2 31.5496 -1048.79 31.1872C-1027.38 31.5496 -1005.96 27.5634 -988.904 19.9535C-972.209 12.7059 -967.49 9.44453 -950.069 4.73362C-939.181 1.83459 -927.567 0.0227013 -914.864 0.0227013L-915.227 0.0227013C-893.813 -0.339677 -872.763 3.64648 -855.342 11.2564C-847.72 14.5178 -836.469 19.9535 -836.469 19.9535C-819.411 27.5634 -797.997 31.5496 -776.584 31.1872C-755.17 31.5496 -733.757 27.5634 -716.699 19.9535C-700.003 12.7059 -695.285 9.44453 -677.864 4.73362C-666.976 1.83459 -655.362 0.0227013 -642.659 0.0227013C-621.245 -0.339677 -600.195 3.64648 -582.774 11.2564C-575.152 14.5178 -563.901 19.9535 -563.901 19.9535C-546.843 27.5634 -525.429 31.5496 -504.016 31.1872C-482.602 31.5496 -461.189 27.5634 -444.131 19.9535C-427.435 12.7059 -422.717 9.44453 -405.296 4.73362C-394.408 1.83459 -382.794 0.0227013 -370.091 0.0227013C-348.677 -0.339677 -327.627 3.64648 -310.206 11.2564C-302.584 14.5178 -291.333 19.9535 -291.333 19.9535C-274.275 27.5634 -252.861 31.5496 -231.448 31.1872C-210.034 31.5496 -188.621 27.5634 -171.562 19.9535C-154.867 12.7059 -150.149 9.44453 -132.728 4.73362C-121.84 1.83459 -110.226 0.0227013 -97.5227 0.0227013C-76.1093 -0.339677 -55.0587 3.64648 -37.6376 11.2564C-30.0159 14.5178 -18.7646 19.9535 -18.7646 19.9535C-1.70642 27.5634 19.707 31.5496 41.1205 31.1872C62.5339 31.5496 83.9474 27.5634 101.006 19.9535C117.701 12.7059 122.419 9.44453 139.84 4.73362C150.728 1.83459 162.343 0.0227013 175.045 0.0227013L174.682 0.0227013C196.096 -0.339677 217.146 3.64648 234.568 11.2564C242.189 14.5178 253.44 19.9535 253.44 19.9535C270.499 27.5634 291.912 31.5496 313.326 31.1872C334.739 31.5496 356.152 27.5634 373.211 19.9535C389.906 12.7059 394.624 9.44453 412.045 4.73362C422.933 1.83459 434.548 0.0227013 447.25 0.0227013C468.664 -0.339677 489.714 3.64648 507.136 11.2564C514.757 14.5178 526.009 19.9535 526.009 19.9535C543.067 27.5634 564.48 31.5496 585.894 31.1872C607.307 31.5496 628.721 27.5634 645.779 19.9535C662.474 12.7059 667.192 9.44453 684.613 4.73362C695.501 1.83459 707.115 0.0227013 719.818 0.0227013C741.232 -0.339677 762.282 3.64648 779.704 11.2564C787.325 14.5178 798.576 19.9535 798.576 19.9535C815.635 27.5634 837.048 31.5496 858.462 31.1872C879.875 31.5496 901.289 27.5634 918.347 19.9535C935.042 12.7059 939.76 9.44453 957.181 4.73362C968.07 1.83459 979.684 0.0227013 992.387 0.0227013C1013.8 -0.339677 1034.85 3.64648 1052.27 11.2564C1059.89 14.5178 1071.14 19.9535 1071.14 19.9535C1088.2 27.5634 1109.62 31.5496 1131.03 31.1872C1152.44 31.5496 1173.86 27.5634 1190.91 19.9535C1207.61 12.7059 1212.33 9.44453 1229.75 4.73362C1240.64 1.83459 1252.25 0.0227013 1264.95 0.0227013L1264.59 0.0227013C1286.01 -0.339677 1307.06 3.64648 1324.48 11.2564C1332.1 14.5178 1343.35 19.9535 1343.35 19.9535C1360.41 27.5634 1381.82 31.5496 1403.23 31.1872C1424.65 31.5496 1446.06 27.5634 1463.12 19.9535C1479.82 12.7059 1484.53 9.44453 1501.95 4.73362C1512.84 1.83459 1524.46 0.0227013 1537.16 0.0227013C1558.57 -0.339677 1579.62 3.64648 1597.04 11.2564C1604.67 14.5178 1615.92 19.9535 1615.92 19.9535C1632.98 27.5634 1654.39 31.5496 1675.8 31.1872C1697.22 31.5496 1718.63 27.5634 1735.69 19.9535C1752.38 12.7059 1757.1 9.44453 1774.52 4.73362C1785.41 1.83459 1797.02 0.0227013 1809.73 0.0227013C1831.14 -0.339677 1852.19 3.64648 1869.61 11.2564C1877.23 14.5178 1888.49 19.9535 1888.49 19.9535C1905.54 27.5634 1926.96 31.5496 1948.37 31.1872C1969.78 31.5496 1991.2 27.5634 2008.26 19.9535C2024.95 12.7059 2029.67 9.44453 2047.09 4.73362C2057.98 1.83459 2069.59 0.0227013 2082.3 0.0227013C2103.71 -0.339677 2124.76 3.64648 2142.18 11.2564C2149.8 14.5178 2161.05 19.9535 2161.05 19.9535C2178.11 27.5634 2199.53 31.5496 2220.94 31.1872C2242.35 31.5496 2263.77 27.5634 2280.82 19.9535C2297.52 12.7059 2302.24 9.44453 2319.66 4.73362C2330.55 1.83459 2342.16 0.0227013 2354.86 0.0227013L2354.5 0.0227013C2375.91 -0.339677 2396.96 3.64648 2414.39 11.2564C2422.01 14.5178 2433.26 19.9535 2433.26 19.9535C2450.32 27.5634 2471.73 31.5496 2493.14 31.1872C2514.56 31.5496 2535.97 27.5634 2553.03 19.9535C2569.72 12.7059 2574.44 9.44453 2591.86 4.73362C2602.75 1.83459 2614.37 0.0227013 2627.07 0.0227013C2648.48 -0.339677 2669.53 3.64648 2686.95 11.2564C2694.58 14.5178 2705.83 19.9535 2705.83 19.9535C2722.89 27.5634 2744.3 31.5496 2765.71 31.1872C2787.13 31.5496 2808.54 27.5634 2825.6 19.9535C2842.29 12.7059 2847.01 9.44453 2864.43 4.73362C2875.32 1.83459 2886.93 0.0227013 2899.64 0.0227013V181L2900 183Z" fill="#133053"/>
</svg>
