<?xml version="1.0" encoding="UTF-8"?> <svg xmlns="http://www.w3.org/2000/svg" width="142" height="46" viewBox="0 0 142 46" fill="none"><path d="M6.19221 39.4978H3.28648V36.0911H0V45.8503H3.28648V42.4436H6.19221V45.8503H9.47869V36.0911H6.19221V39.4978Z" fill="white"></path><path d="M16.232 36.0911L12.4646 45.8703H15.8914L16.6328 43.9265H19.278L20.0395 45.8703H23.4463L19.6588 36.0911H16.232ZM17.0136 41.642L17.9354 39.2773L18.8772 41.642H17.0136Z" fill="white"></path><path d="M34.8688 41.3615C35.1894 40.8605 35.3497 40.2994 35.3497 39.6581C35.3497 38.576 35.0491 37.7143 34.4279 37.073C33.8267 36.4117 32.925 36.0911 31.7226 36.0911H26.4121V45.8703H29.6986V43.2051H30.1795C30.3399 43.2051 30.4601 43.2452 30.5603 43.3053C30.6404 43.3654 30.7206 43.4656 30.8008 43.6259L31.8027 45.8904H35.2295L34.0872 43.2853C33.947 42.9847 33.7867 42.7642 33.6063 42.6239C34.1273 42.2632 34.5482 41.8624 34.8688 41.3615ZM31.7226 40.3996C31.5422 40.5799 31.2617 40.6601 30.901 40.6601H29.6986V38.616H30.9811C31.6625 38.616 32.0031 38.9567 32.0031 39.6581C32.0031 39.9787 31.923 40.2392 31.7226 40.3996Z" fill="white"></path><path d="M42.8644 36.0911H38.3354V45.8703H42.8644C46.1509 45.8703 47.7941 44.2672 47.7941 41.0408C47.7941 39.3174 47.3733 38.075 46.5316 37.2734C45.69 36.4718 44.4675 36.0911 42.8644 36.0911ZM44.2271 42.4837C44.0667 42.8243 43.8463 43.0448 43.5658 43.1851C43.2852 43.3053 42.9045 43.3654 42.4636 43.3654H41.6019V38.6762H42.4636C42.9445 38.6762 43.3253 38.7363 43.6058 38.8766C43.8864 39.0168 44.1068 39.2373 44.2471 39.5779C44.3874 39.9186 44.4675 40.3996 44.4675 41.0208C44.4475 41.662 44.3673 42.143 44.2271 42.4837Z" fill="white"></path><path d="M66.3108 40.4999C65.8899 40.1993 65.2887 39.9388 64.5072 39.7184C64.0062 39.5781 63.6655 39.4979 63.4651 39.4378C63.2647 39.3777 63.1044 39.2975 63.0042 39.2174C62.904 39.1372 62.8439 39.037 62.8439 38.8968C62.8439 38.6964 62.9642 38.5561 63.2247 38.496C63.4651 38.4158 63.8259 38.3958 64.2467 38.3958C65.0483 38.3958 65.91 38.5761 66.8518 38.9569V36.3918C66.451 36.2716 65.95 36.1714 65.3489 36.0712C64.7477 35.971 64.2066 35.9309 63.7056 35.9309C60.9001 35.9309 59.4973 36.9329 59.4973 38.9368C59.4973 39.4779 59.5775 39.9388 59.7378 40.2995C59.8981 40.6602 60.1586 40.9809 60.5394 41.2414C60.9001 41.5019 61.4211 41.7424 62.0824 41.9628C62.3229 42.043 62.5032 42.1031 62.6636 42.1432C63.1846 42.3235 63.5453 42.4638 63.7457 42.564C63.9461 42.6642 64.0262 42.8245 64.0262 43.0049C64.0262 43.2253 63.926 43.3656 63.7056 43.4457C63.5052 43.5259 63.1846 43.566 62.7437 43.566C62.2828 43.566 61.7417 43.4858 61.1806 43.3455C60.5995 43.2053 60.0785 43.0249 59.5975 42.8045V45.3495C60.0183 45.5499 60.5394 45.7102 61.1606 45.8104C61.7818 45.9306 62.4231 45.9707 63.1044 45.9707C64.5072 45.9707 65.5693 45.7102 66.2907 45.1691C67.0121 44.6281 67.3728 43.8866 67.3728 42.9648C67.3728 42.4037 67.2927 41.9227 67.1524 41.5219C67.0121 41.1612 66.7316 40.8005 66.3108 40.4999Z" fill="white"></path><path d="M70.9399 45.8503H78.595V43.4456H74.2264V42.2232H78.0339V39.7383H74.2264V38.4958H78.595V36.0911H70.9399V45.8503Z" fill="white"></path><path d="M85.7091 36.0911H82.4226V45.8503H89.9174V43.3654H85.7091V36.0911Z" fill="white"></path><path d="M90.8591 38.4557H93.4843V45.8503H96.7708V38.4557H99.396V36.0911H90.8591V38.4557Z" fill="white"></path><path d="M110.738 37.8746V36.0911H102.683V38.6762H106.41L102.482 44.2471V45.8503H110.819V43.3654H106.851L110.738 37.8746Z" fill="white"></path><path d="M114.666 45.8503H122.301V43.4456H117.932V42.2232H121.74V39.7383H117.932V38.4958H122.301V36.0911H114.666V45.8503Z" fill="white"></path><path d="M134.605 41.3615C134.926 40.8605 135.086 40.2994 135.086 39.6581C135.086 38.576 134.786 37.7143 134.164 37.073C133.563 36.4117 132.662 36.0911 131.459 36.0911H126.149V45.8703H129.435V43.2051H129.916C130.076 43.2051 130.197 43.2452 130.297 43.3053C130.377 43.3654 130.457 43.4656 130.537 43.6259L131.539 45.8904H134.966L133.824 43.2853C133.684 42.9847 133.523 42.7642 133.343 42.6239C133.844 42.2632 134.285 41.8624 134.605 41.3615ZM131.459 40.3996C131.279 40.5799 130.998 40.6601 130.638 40.6601H129.435V38.616H130.718C131.399 38.616 131.74 38.9567 131.74 39.6581C131.74 39.9787 131.64 40.2392 131.459 40.3996Z" fill="white"></path><path d="M62.423 20.0596C63.0443 18.697 63.3649 17.174 63.3649 15.4706V9.23831C63.3649 7.73534 63.3649 6.55301 63.3849 5.65123C63.405 4.76949 63.445 4.00799 63.5252 3.42685C63.6054 2.82566 63.7056 2.32467 63.8258 1.8838C63.9661 1.44293 64.1464 0.941946 64.3669 0.400879H53.7259C53.9664 0.941946 54.1467 1.44293 54.2669 1.86376C54.4072 2.28459 54.4874 2.80562 54.5475 3.38677C54.6076 3.98795 54.6477 4.72941 54.6477 5.63119C54.6677 6.53297 54.6677 7.73534 54.6677 9.23831V14.2682C54.6677 16.4325 54.287 17.9355 53.5054 18.7972C52.7439 19.6589 51.5215 20.0797 49.8583 20.0797C49.1368 20.0797 48.4555 19.9795 47.8142 19.7791C47.173 19.5787 46.6119 19.2581 46.1309 18.8372C45.65 18.4164 45.2692 17.8353 44.9887 17.1539C44.7081 16.4525 44.5678 15.6109 44.5678 14.6089V9.87957C44.5678 8.39665 44.5678 7.21431 44.5879 6.31254C44.6079 5.41076 44.648 4.64926 44.7281 4.00799C44.8083 3.38677 44.9085 2.80562 45.0287 2.28459C45.169 1.76357 45.3494 1.1223 45.5698 0.400879H33.8467C34.0872 1.14234 34.2675 1.76357 34.3877 2.28459C34.528 2.80562 34.6082 3.38677 34.6683 4.00799C34.7284 4.62922 34.7685 5.41076 34.7685 6.31254C34.8687 7.21431 34.8687 8.39665 34.8687 9.87957V14.9496C34.8687 18.6569 36.0911 21.5025 38.5359 23.5064C40.9807 25.5104 44.6279 26.4923 49.4775 26.4923C51.6819 26.4923 53.6457 26.2318 55.3691 25.7308C57.0925 25.2298 58.5354 24.4884 59.7177 23.5465C60.9 22.5846 61.8018 21.4223 62.423 20.0596Z" fill="white"></path><path d="M98.6143 6.31254C98.6344 5.41076 98.6745 4.64926 98.7546 4.00799C98.8348 3.38677 98.935 2.80562 99.0552 2.28459C99.1955 1.76357 99.3758 1.1223 99.5963 0.400879H87.8732C88.1136 1.1223 88.294 1.72349 88.4142 2.26455C88.5545 2.78558 88.6347 3.36673 88.6948 3.96791C88.7549 4.58914 88.795 5.3306 88.795 6.1923C88.815 7.054 88.815 8.21629 88.815 9.6391H78.4546C78.4546 8.21629 78.4546 7.07404 78.4746 6.1923C78.4947 5.3306 78.5347 4.58914 78.6149 3.96791C78.6951 3.34669 78.7953 2.78558 78.9155 2.26455C79.0558 1.74353 79.2361 1.1223 79.4566 0.400879H67.7334C67.9739 1.14234 68.1543 1.76357 68.2745 2.28459C68.4148 2.80562 68.4949 3.38677 68.5551 4.00799C68.6152 4.62922 68.6553 5.41076 68.6553 6.31254C68.6753 7.21431 68.6753 8.39665 68.6753 9.87957V16.6128C68.6753 18.0958 68.6753 19.2781 68.6553 20.1799C68.6352 21.0817 68.5951 21.8432 68.5551 22.4844C68.4949 23.1056 68.3947 23.6868 68.2545 24.2078C68.1142 24.7289 67.9138 25.3701 67.6934 26.0915H79.4165C79.176 25.3501 78.9957 24.7289 78.8754 24.2078C78.7351 23.6868 78.655 23.1056 78.5949 22.4844C78.5347 21.8632 78.4947 21.0817 78.4947 20.1799C78.4746 19.2781 78.4746 18.0958 78.4746 16.6128V16.3924H88.835V16.6128C88.835 18.0958 88.8351 19.2781 88.815 20.1799C88.795 21.0817 88.7549 21.8432 88.7148 22.4844C88.6547 23.1056 88.5545 23.6868 88.4142 24.2078C88.2739 24.7289 88.0735 25.3701 87.8531 26.0915H99.5762C99.3358 25.3501 99.1554 24.7289 99.0352 24.2078C98.8949 23.6868 98.8147 23.1056 98.7546 22.4844C98.6945 21.8632 98.6544 21.0817 98.6544 20.1799C98.6344 19.2781 98.6344 18.0958 98.6344 16.6128V9.87957C98.5943 8.39665 98.5943 7.21431 98.6143 6.31254Z" fill="white"></path><path d="M131.179 4.0079C129.736 2.78549 127.992 1.80356 125.948 1.08213C123.904 0.360711 121.58 0 118.995 0C116.409 0 114.085 0.360711 112.041 1.08213C109.997 1.80356 108.253 2.78549 106.811 4.02794C105.368 5.27039 104.286 6.67316 103.524 8.27632C102.763 9.85944 102.382 11.5428 102.382 13.3062C102.382 15.0497 102.763 16.713 103.544 18.2961C104.306 19.8792 105.408 21.282 106.831 22.5044C108.253 23.7067 109.997 24.6887 112.061 25.4101C114.125 26.1315 116.43 26.4922 118.995 26.4922C121.58 26.4922 123.904 26.1315 125.968 25.4101C128.032 24.6887 129.776 23.7067 131.199 22.5044C132.621 21.302 133.704 19.8992 134.465 18.2961C135.227 16.713 135.607 15.0497 135.607 13.3062C135.607 11.5428 135.227 9.85944 134.465 8.25628C133.704 6.65312 132.621 5.23031 131.179 4.0079ZM124.826 16.4925C124.546 17.2139 124.165 17.8552 123.644 18.3762C123.143 18.9173 122.522 19.3181 121.8 19.6187C121.079 19.9193 120.257 20.0596 119.355 20.0596C118.373 20.0596 117.472 19.8592 116.65 19.4584C115.828 19.0576 115.147 18.4965 114.586 17.7951C114.025 17.0937 113.584 16.2721 113.263 15.3302C112.943 14.3884 112.782 13.3864 112.782 12.3243C112.782 10.4606 113.303 9.01778 114.365 7.97573C115.428 6.93367 116.85 6.41264 118.654 6.41264C119.636 6.41264 120.538 6.593 121.339 6.97375C122.141 7.33446 122.822 7.85549 123.403 8.51679C123.984 9.1781 124.425 9.97968 124.746 10.9215C125.067 11.8634 125.227 12.9054 125.227 14.0677C125.227 14.9695 125.087 15.7711 124.826 16.4925Z" fill="white"></path><path d="M28.6365 20.0797C29.2577 18.717 29.5783 17.194 29.5783 15.4906V9.25833C29.5783 7.75536 29.5783 6.57303 29.5984 5.67125C29.6184 4.78951 29.6585 4.02801 29.7386 3.44687C29.8188 2.84568 29.919 2.34469 30.0392 1.90382C30.1795 1.46295 30.3599 0.961965 30.5803 0.420898H19.9393C20.1798 0.961965 20.3601 1.46295 20.4804 1.88378C20.6207 2.30461 20.7008 2.82564 20.7609 3.40679C20.801 3.78754 20.8211 4.22841 20.8411 4.74943H20.8611C20.8812 5.73137 20.8812 7.03394 20.8812 8.65714V9.25833V14.0878V14.2682C20.8812 15.7912 20.6808 16.9936 20.3 17.8753C20.1197 18.3162 19.8992 18.6969 19.6187 18.9975C18.777 19.9193 17.4745 20.3803 15.6709 20.3803C14.8894 20.3803 14.1479 20.2801 13.4465 20.0596C12.7451 19.8392 12.1439 19.4985 11.6229 19.0376C11.1019 18.5767 10.7011 17.9555 10.4005 17.194C10.0999 16.4325 9.95964 15.5107 9.95964 14.4285V10.621L0 13.2863C0 13.2863 0.861699 14.4285 1.22241 16.9735C1.58312 19.719 2.76545 21.8832 4.74937 23.5064C6.43269 24.8891 8.71719 25.7909 11.5628 26.2118C13.9275 26.6125 16.1519 26.5725 17.5747 26.4322C19.0375 26.332 20.3601 26.0915 21.5826 25.7308C23.306 25.2298 24.7488 24.4884 25.9311 23.5465C27.1135 22.6046 28.0152 21.4424 28.6365 20.0797Z" fill="white"></path><path d="M138.693 0.0400391C136.87 0.0400391 135.387 1.52296 135.387 3.3666C135.387 5.1902 136.87 6.69316 138.693 6.69316C140.517 6.69316 142 5.21023 142 3.3666C142 1.543 140.517 0.0400391 138.693 0.0400391ZM138.693 6.23225C137.11 6.23225 135.828 4.94972 135.828 3.34656C135.828 1.76344 137.11 0.460869 138.693 0.460869C140.277 0.460869 141.559 1.7434 141.559 3.34656C141.559 4.94972 140.277 6.23225 138.693 6.23225Z" fill="white"></path><path d="M136.589 2.6451H137.211V4.38853H137.651V2.6451H138.293V2.32446H136.589V2.6451Z" fill="white"></path><path d="M139.515 3.56691L138.914 2.32446H138.473V4.38853H138.914V3.04589L139.395 4.02782H139.635L140.116 3.04589V4.38853H140.557V2.32446H140.116L139.515 3.56691Z" fill="white"></path></svg> 