<svg width="49" height="49" viewBox="0 0 49 49" fill="none" xmlns="http://www.w3.org/2000/svg">
<path d="M24.3969 4.60222C30.8204 4.60222 31.6234 4.60222 34.233 4.80296C40.8572 5.0037 43.8683 8.21547 44.069 14.639C44.2697 17.2486 44.2697 17.8508 44.2697 24.2743C44.2697 30.6979 44.2697 31.5008 44.069 33.9097C43.8683 40.3332 40.6565 43.545 34.233 43.7457C31.6234 43.9465 31.0212 43.9464 24.3969 43.9464C17.9733 43.9464 17.1704 43.9465 14.7616 43.7457C8.13729 43.545 5.12625 40.3332 4.92552 33.9097C4.72478 31.3001 4.72478 30.6979 4.72478 24.2743C4.72478 17.8508 4.72478 17.0478 4.92552 14.639C5.12625 8.21547 8.33803 5.0037 14.7616 4.80296C17.1704 4.60222 17.9733 4.60222 24.3969 4.60222ZM24.3969 0.186035C17.7726 0.186035 16.9697 0.186035 14.5608 0.386771C5.72846 0.788243 0.910801 5.6059 0.50933 14.4383C0.308594 16.8471 0.308594 17.6501 0.308594 24.2743C0.308594 30.8986 0.308594 31.7016 0.50933 34.1104C0.910801 42.9428 5.72846 47.7604 14.5608 48.1619C16.9697 48.3626 17.7726 48.3626 24.3969 48.3626C31.0212 48.3626 31.8241 48.3626 34.233 48.1619C43.0653 47.7604 47.883 42.9428 48.2845 34.1104C48.4852 31.7016 48.4852 30.8986 48.4852 24.2743C48.4852 17.6501 48.4852 16.8471 48.2845 14.4383C47.883 5.6059 43.0653 0.788243 34.233 0.386771C31.8241 0.186035 31.0212 0.186035 24.3969 0.186035ZM24.3969 11.8287C17.5719 11.8287 11.9513 17.4493 11.9513 24.2743C11.9513 31.0994 17.5719 36.72 24.3969 36.72C31.2219 36.72 36.8425 31.0994 36.8425 24.2743C36.8425 17.4493 31.2219 11.8287 24.3969 11.8287ZM24.3969 32.3038C19.9807 32.3038 16.3675 28.6905 16.3675 24.2743C16.3675 19.8581 19.9807 16.2449 24.3969 16.2449C28.8131 16.2449 32.4263 19.8581 32.4263 24.2743C32.4263 28.6905 28.8131 32.3038 24.3969 32.3038ZM37.244 8.61694C35.6381 8.61694 34.4337 9.82136 34.4337 11.4272C34.4337 13.0331 35.6381 14.2375 37.244 14.2375C38.8499 14.2375 40.0543 13.0331 40.0543 11.4272C40.0543 9.82136 38.8499 8.61694 37.244 8.61694Z" fill="#E85365"/>
</svg>
