<svg width="1440" height="183" viewBox="0 0 1440 183" fill="none" xmlns="http://www.w3.org/2000/svg">
<path d="M2900 0L-1460 0L-1460 182.977C-1438.59 183.34 -1417.54 179.354 -1400.11 171.744C-1392.49 168.482 -1381.24 163.046 -1381.24 163.046C-1364.18 155.437 -1342.77 151.45 -1321.36 151.813C-1299.94 151.45 -1278.53 155.437 -1261.47 163.046C-1244.78 170.294 -1240.06 173.555 -1222.64 178.266C-1211.75 181.165 -1200.13 182.977 -1187.43 182.977C-1166.02 183.34 -1144.97 179.354 -1127.55 171.744C-1119.93 168.482 -1108.67 163.046 -1108.67 163.046C-1091.62 155.437 -1070.2 151.45 -1048.79 151.813C-1027.38 151.45 -1005.96 155.437 -988.904 163.046C-972.209 170.294 -967.49 173.555 -950.069 178.266C-939.181 181.165 -927.567 182.977 -914.864 182.977H-915.227C-893.813 183.34 -872.763 179.354 -855.342 171.744C-847.72 168.482 -836.469 163.046 -836.469 163.046C-819.411 155.437 -797.997 151.45 -776.584 151.813C-755.17 151.45 -733.757 155.437 -716.699 163.046C-700.003 170.294 -695.285 173.555 -677.864 178.266C-666.976 181.165 -655.362 182.977 -642.659 182.977C-621.245 183.34 -600.195 179.354 -582.774 171.744C-575.152 168.482 -563.901 163.046 -563.901 163.046C-546.843 155.437 -525.429 151.45 -504.016 151.813C-482.602 151.45 -461.189 155.437 -444.131 163.046C-427.435 170.294 -422.717 173.555 -405.296 178.266C-394.408 181.165 -382.794 182.977 -370.091 182.977C-348.677 183.34 -327.627 179.354 -310.206 171.744C-302.584 168.482 -291.333 163.046 -291.333 163.046C-274.275 155.437 -252.861 151.45 -231.448 151.813C-210.034 151.45 -188.621 155.437 -171.562 163.046C-154.867 170.294 -150.149 173.555 -132.728 178.266C-121.84 181.165 -110.226 182.977 -97.5227 182.977C-76.1093 183.34 -55.0587 179.354 -37.6376 171.744C-30.0159 168.482 -18.7646 163.046 -18.7646 163.046C-1.70642 155.437 19.707 151.45 41.1205 151.813C62.5339 151.45 83.9474 155.437 101.006 163.046C117.701 170.294 122.419 173.555 139.84 178.266C150.728 181.165 162.343 182.977 175.045 182.977H174.682C196.096 183.34 217.146 179.354 234.568 171.744C242.189 168.482 253.44 163.046 253.44 163.046C270.499 155.437 291.912 151.45 313.326 151.813C334.739 151.45 356.152 155.437 373.211 163.046C389.906 170.294 394.624 173.555 412.045 178.266C422.933 181.165 434.548 182.977 447.25 182.977C468.664 183.34 489.714 179.354 507.136 171.744C514.757 168.482 526.009 163.046 526.009 163.046C543.067 155.437 564.48 151.45 585.894 151.813C607.307 151.45 628.721 155.437 645.779 163.046C662.474 170.294 667.192 173.555 684.613 178.266C695.501 181.165 707.115 182.977 719.818 182.977C741.232 183.34 762.282 179.354 779.704 171.744C787.325 168.482 798.576 163.046 798.576 163.046C815.635 155.437 837.048 151.45 858.462 151.813C879.875 151.45 901.289 155.437 918.347 163.046C935.042 170.294 939.76 173.555 957.181 178.266C968.07 181.165 979.684 182.977 992.387 182.977C1013.8 183.34 1034.85 179.354 1052.27 171.744C1059.89 168.482 1071.14 163.046 1071.14 163.046C1088.2 155.437 1109.62 151.45 1131.03 151.813C1152.44 151.45 1173.86 155.437 1190.91 163.046C1207.61 170.294 1212.33 173.555 1229.75 178.266C1240.64 181.165 1252.25 182.977 1264.95 182.977H1264.59C1286.01 183.34 1307.06 179.354 1324.48 171.744C1332.1 168.482 1343.35 163.046 1343.35 163.046C1360.41 155.437 1381.82 151.45 1403.23 151.813C1424.65 151.45 1446.06 155.437 1463.12 163.046C1479.82 170.294 1484.53 173.555 1501.95 178.266C1512.84 181.165 1524.46 182.977 1537.16 182.977C1558.57 183.34 1579.62 179.354 1597.04 171.744C1604.67 168.482 1615.92 163.046 1615.92 163.046C1632.98 155.437 1654.39 151.45 1675.8 151.813C1697.22 151.45 1718.63 155.437 1735.69 163.046C1752.38 170.294 1757.1 173.555 1774.52 178.266C1785.41 181.165 1797.02 182.977 1809.73 182.977C1831.14 183.34 1852.19 179.354 1869.61 171.744C1877.23 168.482 1888.49 163.046 1888.49 163.046C1905.54 155.437 1926.96 151.45 1948.37 151.813C1969.78 151.45 1991.2 155.437 2008.26 163.046C2024.95 170.294 2029.67 173.555 2047.09 178.266C2057.98 181.165 2069.59 182.977 2082.3 182.977C2103.71 183.34 2124.76 179.354 2142.18 171.744C2149.8 168.482 2161.05 163.046 2161.05 163.046C2178.11 155.437 2199.53 151.45 2220.94 151.813C2242.35 151.45 2263.77 155.437 2280.82 163.046C2297.52 170.294 2302.24 173.555 2319.66 178.266C2330.55 181.165 2342.16 182.977 2354.86 182.977H2354.5C2375.91 183.34 2396.96 179.354 2414.39 171.744C2422.01 168.482 2433.26 163.046 2433.26 163.046C2450.32 155.437 2471.73 151.45 2493.14 151.813C2514.56 151.45 2535.97 155.437 2553.03 163.046C2569.72 170.294 2574.44 173.555 2591.86 178.266C2602.75 181.165 2614.37 182.977 2627.07 182.977C2648.48 183.34 2669.53 179.354 2686.95 171.744C2694.58 168.482 2705.83 163.046 2705.83 163.046C2722.89 155.437 2744.3 151.45 2765.71 151.813C2787.13 151.45 2808.54 155.437 2825.6 163.046C2842.29 170.294 2847.01 173.555 2864.43 178.266C2875.32 181.165 2886.93 182.977 2899.64 182.977V2.00002L2900 0Z" fill="#fff"/>
</svg>
