<svg width="1440" height="183" viewBox="0 0 1440 183" fill="none" xmlns="http://www.w3.org/2000/svg">
<path d="M2893 183L-1467 183L-1467 0.0227013C-1445.59 -0.339677 -1424.54 3.64648 -1407.11 11.2564C-1399.49 14.5178 -1388.24 19.9535 -1388.24 19.9535C-1371.18 27.5634 -1349.77 31.5496 -1328.36 31.1872C-1306.94 31.5496 -1285.53 27.5634 -1268.47 19.9535C-1251.78 12.7059 -1247.06 9.44453 -1229.64 4.73362C-1218.75 1.83459 -1207.13 0.0227013 -1194.43 0.0227013C-1173.02 -0.339677 -1151.97 3.64648 -1134.55 11.2564C-1126.93 14.5178 -1115.67 19.9535 -1115.67 19.9535C-1098.62 27.5634 -1077.2 31.5496 -1055.79 31.1872C-1034.38 31.5496 -1012.96 27.5634 -995.904 19.9535C-979.209 12.7059 -974.49 9.44453 -957.069 4.73362C-946.181 1.83459 -934.567 0.0227013 -921.864 0.0227013L-922.227 0.0227013C-900.813 -0.339677 -879.763 3.64648 -862.342 11.2564C-854.72 14.5178 -843.469 19.9535 -843.469 19.9535C-826.411 27.5634 -804.997 31.5496 -783.584 31.1872C-762.17 31.5496 -740.757 27.5634 -723.699 19.9535C-707.003 12.7059 -702.285 9.44453 -684.864 4.73362C-673.976 1.83459 -662.362 0.0227013 -649.659 0.0227013C-628.245 -0.339677 -607.195 3.64648 -589.774 11.2564C-582.152 14.5178 -570.901 19.9535 -570.901 19.9535C-553.843 27.5634 -532.429 31.5496 -511.016 31.1872C-489.602 31.5496 -468.189 27.5634 -451.131 19.9535C-434.435 12.7059 -429.717 9.44453 -412.296 4.73362C-401.408 1.83459 -389.794 0.0227013 -377.091 0.0227013C-355.677 -0.339677 -334.627 3.64648 -317.206 11.2564C-309.584 14.5178 -298.333 19.9535 -298.333 19.9535C-281.275 27.5634 -259.861 31.5496 -238.448 31.1872C-217.034 31.5496 -195.621 27.5634 -178.562 19.9535C-161.867 12.7059 -157.149 9.44453 -139.728 4.73362C-128.84 1.83459 -117.226 0.0227013 -104.523 0.0227013C-83.1093 -0.339677 -62.0587 3.64648 -44.6376 11.2564C-37.0159 14.5178 -25.7646 19.9535 -25.7646 19.9535C-8.70642 27.5634 12.707 31.5496 34.1205 31.1872C55.5339 31.5496 76.9474 27.5634 94.0056 19.9535C110.701 12.7059 115.419 9.44453 132.84 4.73362C143.728 1.83459 155.343 0.0227013 168.045 0.0227013L167.682 0.0227013C189.096 -0.339677 210.146 3.64648 227.568 11.2564C235.189 14.5178 246.44 19.9535 246.44 19.9535C263.499 27.5634 284.912 31.5496 306.326 31.1872C327.739 31.5496 349.152 27.5634 366.211 19.9535C382.906 12.7059 387.624 9.44453 405.045 4.73362C415.933 1.83459 427.548 0.0227013 440.25 0.0227013C461.664 -0.339677 482.714 3.64648 500.136 11.2564C507.757 14.5178 519.009 19.9535 519.009 19.9535C536.067 27.5634 557.48 31.5496 578.894 31.1872C600.307 31.5496 621.721 27.5634 638.779 19.9535C655.474 12.7059 660.192 9.44453 677.613 4.73362C688.501 1.83459 700.115 0.0227013 712.818 0.0227013C734.232 -0.339677 755.282 3.64648 772.704 11.2564C780.325 14.5178 791.576 19.9535 791.576 19.9535C808.635 27.5634 830.048 31.5496 851.462 31.1872C872.875 31.5496 894.289 27.5634 911.347 19.9535C928.042 12.7059 932.76 9.44453 950.181 4.73362C961.07 1.83459 972.684 0.0227013 985.387 0.0227013C1006.8 -0.339677 1027.85 3.64648 1045.27 11.2564C1052.89 14.5178 1064.14 19.9535 1064.14 19.9535C1081.2 27.5634 1102.62 31.5496 1124.03 31.1872C1145.44 31.5496 1166.86 27.5634 1183.91 19.9535C1200.61 12.7059 1205.33 9.44453 1222.75 4.73362C1233.64 1.83459 1245.25 0.0227013 1257.95 0.0227013L1257.59 0.0227013C1279.01 -0.339677 1300.06 3.64648 1317.48 11.2564C1325.1 14.5178 1336.35 19.9535 1336.35 19.9535C1353.41 27.5634 1374.82 31.5496 1396.23 31.1872C1417.65 31.5496 1439.06 27.5634 1456.12 19.9535C1472.82 12.7059 1477.53 9.44453 1494.95 4.73362C1505.84 1.83459 1517.46 0.0227013 1530.16 0.0227013C1551.57 -0.339677 1572.62 3.64648 1590.04 11.2564C1597.67 14.5178 1608.92 19.9535 1608.92 19.9535C1625.98 27.5634 1647.39 31.5496 1668.8 31.1872C1690.22 31.5496 1711.63 27.5634 1728.69 19.9535C1745.38 12.7059 1750.1 9.44453 1767.52 4.73362C1778.41 1.83459 1790.02 0.0227013 1802.73 0.0227013C1824.14 -0.339677 1845.19 3.64648 1862.61 11.2564C1870.23 14.5178 1881.49 19.9535 1881.49 19.9535C1898.54 27.5634 1919.96 31.5496 1941.37 31.1872C1962.78 31.5496 1984.2 27.5634 2001.26 19.9535C2017.95 12.7059 2022.67 9.44453 2040.09 4.73362C2050.98 1.83459 2062.59 0.0227013 2075.3 0.0227013C2096.71 -0.339677 2117.76 3.64648 2135.18 11.2564C2142.8 14.5178 2154.05 19.9535 2154.05 19.9535C2171.11 27.5634 2192.53 31.5496 2213.94 31.1872C2235.35 31.5496 2256.77 27.5634 2273.82 19.9535C2290.52 12.7059 2295.24 9.44453 2312.66 4.73362C2323.55 1.83459 2335.16 0.0227013 2347.86 0.0227013L2347.5 0.0227013C2368.91 -0.339677 2389.96 3.64648 2407.39 11.2564C2415.01 14.5178 2426.26 19.9535 2426.26 19.9535C2443.32 27.5634 2464.73 31.5496 2486.14 31.1872C2507.56 31.5496 2528.97 27.5634 2546.03 19.9535C2562.72 12.7059 2567.44 9.44453 2584.86 4.73362C2595.75 1.83459 2607.37 0.0227013 2620.07 0.0227013C2641.48 -0.339677 2662.53 3.64648 2679.95 11.2564C2687.58 14.5178 2698.83 19.9535 2698.83 19.9535C2715.89 27.5634 2737.3 31.5496 2758.71 31.1872C2780.13 31.5496 2801.54 27.5634 2818.6 19.9535C2835.29 12.7059 2840.01 9.44453 2857.43 4.73362C2868.32 1.83459 2879.93 0.0227013 2892.64 0.0227013V181L2893 183Z" fill="white"/>
</svg>
